<?xml version="1.0" encoding="utf-8"?>
<!-- Generator: Adobe Illustrator 27.5.0, SVG Export Plug-In . SVG Version: 6.00 Build 0)  -->
<svg version="1.1" id="Layer_2_00000038398071312071886580000013768346814783892877_"
	 xmlns="http://www.w3.org/2000/svg" xmlns:xlink="http://www.w3.org/1999/xlink" x="0px" y="0px" viewBox="0 0 845.3 534.9"
	 style="enable-background:new 0 0 845.3 534.9;" xml:space="preserve">
<style type="text/css">
	.st0{clip-path:url(#SVGID_00000086693252878166623620000008852028996406421914_);}
	.st1{fill:none;stroke:#BFAC95;stroke-width:2;stroke-miterlimit:10;}
</style>
<g id="Layer_1-2">
	<g>
		<defs>
			<rect id="SVGID_1_" y="0" width="845.3" height="534.9"/>
		</defs>
		<clipPath id="SVGID_00000142894349570655863840000000726038959801495195_">
			<use xlink:href="#SVGID_1_"  style="overflow:visible;"/>
		</clipPath>
		<g style="clip-path:url(#SVGID_00000142894349570655863840000000726038959801495195_);">
			<circle id="Ellipse_265" class="st1" cx="611.4" cy="616.8" r="557.8"/>
			<line id="Line_549" class="st1" x1="136.8" y1="909.9" x2="136.8" y2="323.7"/>
			<line id="Line_550" class="st1" x1="192.6" y1="985.2" x2="192.6" y2="248.4"/>
			<line id="Line_551" class="st1" x1="248.4" y1="1040.3" x2="248.4" y2="193.3"/>
			<line id="Line_552" class="st1" x1="304.3" y1="1082.4" x2="304.3" y2="151.1"/>
			<line id="Line_553" class="st1" x1="360.1" y1="1114.9" x2="360.1" y2="118.7"/>
			<line id="Line_554" class="st1" x1="416" y1="1139.3" x2="416" y2="94.2"/>
			<line id="Line_555" class="st1" x1="471.8" y1="1157" x2="471.8" y2="76.6"/>
			<line id="Line_556" class="st1" x1="527.7" y1="1168.3" x2="527.7" y2="65.2"/>
			<line id="Line_557" class="st1" x1="583.5" y1="1173.9" x2="583.5" y2="59.7"/>
			<line id="Line_558" class="st1" x1="639.3" y1="1173.9" x2="639.3" y2="59.7"/>
			<line id="Line_559" class="st1" x1="695.2" y1="1168.3" x2="695.2" y2="65.2"/>
			<line id="Line_560" class="st1" x1="751" y1="1156.9" x2="751" y2="76.6"/>
			<line id="Line_561" class="st1" x1="806.9" y1="1139.3" x2="806.9" y2="94.2"/>
			<line id="Line_562" class="st1" x1="862.7" y1="1114.9" x2="862.7" y2="118.7"/>
			<line id="Line_563" class="st1" x1="918.5" y1="1082.4" x2="918.5" y2="151.1"/>
			<line id="Line_564" class="st1" x1="974.4" y1="1040.3" x2="974.4" y2="193.2"/>
			<line id="Line_565" class="st1" x1="1030.2" y1="985.2" x2="1030.2" y2="248.4"/>
			<line id="Line_566" class="st1" x1="1086.1" y1="909.9" x2="1086.1" y2="323.7"/>
		</g>
	</g>
</g>
</svg>
